<svg xmlns="http://www.w3.org/2000/svg" viewBox="0 0 512 512">
  <defs>
    <linearGradient id="bg" x1="64" y1="48" x2="448" y2="464" gradientUnits="userSpaceOnUse">
      <stop stop-color="#181d21"/>
      <stop offset="1" stop-color="#080a0c"/>
    </linearGradient>
    <linearGradient id="gold" x1="112" y1="128" x2="400" y2="384" gradientUnits="userSpaceOnUse">
      <stop stop-color="#ffd166"/>
      <stop offset="0.48" stop-color="#ffab00"/>
      <stop offset="1" stop-color="#ff7a00"/>
    </linearGradient>
  </defs>
  <rect x="20" y="20" width="472" height="472" rx="112" fill="url(#bg)"/>
  <rect x="32" y="32" width="448" height="448" rx="100" fill="none" stroke="#30373d" stroke-width="4"/>
  <path d="M132 140 238 256 132 372" fill="none" stroke="#090b0d" stroke-width="48" stroke-linecap="round" stroke-linejoin="round"/>
  <path d="M380 140 274 256 380 372" fill="none" stroke="#090b0d" stroke-width="48" stroke-linecap="round" stroke-linejoin="round"/>
  <path d="M132 140 238 256 132 372" fill="none" stroke="url(#gold)" stroke-width="28" stroke-linecap="round" stroke-linejoin="round"/>
  <path d="M380 140 274 256 380 372" fill="none" stroke="url(#gold)" stroke-width="28" stroke-linecap="round" stroke-linejoin="round"/>
  <path d="M218 156v72M294 284v72" stroke="#ffe099" stroke-width="18" stroke-linecap="round"/>
  <path d="M294 156v72M218 284v72" stroke="#d97800" stroke-width="18" stroke-linecap="round"/>
  <rect x="228" y="228" width="56" height="56" rx="16" transform="rotate(45 256 256)" fill="#ffb000" stroke="#ffe29b" stroke-width="6"/>
</svg>
